<svg width="503" height="138" viewBox="0 0 503 138" fill="none" xmlns="http://www.w3.org/2000/svg">
<path d="M35.801 57.5619C23.8839 57.5619 2 72.5504 2 72.5504V138H502V22.5888C502 22.5888 480.954 31.744 471.388 28.5843C457.902 24.1301 445.24 2.75412 436.949 2.10453C424.194 1.10517 428.02 7.60042 401.872 7.6004C377 7.60038 388.185 20.5904 363.607 20.5904C350.15 20.5904 330.444 31.5848 330.444 31.5848H291.541C273.046 31.5848 269.276 63.9031 248.811 61.5617C228.976 59.2922 229.679 54.0646 213.735 54.0646C198.14 54.0646 195.738 61.7107 179.934 60.06C160.801 58.0615 161.439 36.5781 135.291 36.5781C103.403 36.5781 97.6633 63.0577 72.1531 65.0561C53.4237 66.5234 56.3698 57.5619 35.801 57.5619Z" fill="url(#paint0_linear_1_441)"/>
<path d="M2 73.0002C2 73.0002 23.8839 58.0001 35.801 58.0001C56.3698 58.0001 53.4237 66.9685 72.1531 65.5001C97.6633 63.5001 103.403 37.0001 135.291 37.0001C161.439 37.0001 160.801 58.5001 179.934 60.5001C195.738 62.1522 198.14 54.5001 213.735 54.5001C229.679 54.5001 228.976 59.7318 248.811 62.003C269.276 64.3462 273.046 32.003 291.541 32.003C307.139 32.003 330.444 32.003 330.444 32.003C330.444 32.003 350.15 21.0001 363.607 21.0001C388.185 21.0001 377 8.00014 401.872 8.00016C428.02 8.00018 424.194 1.49993 436.949 2.50006C445.24 3.15015 457.902 24.5426 471.388 29.0002C480.954 32.1624 502 23.0001 502 23.0001" stroke="#6EDCB5" stroke-width="4"/>
<defs>
<linearGradient id="paint0_linear_1_441" x1="252" y1="2" x2="252" y2="138" gradientUnits="userSpaceOnUse">
<stop stop-color="#6EDCB5" stop-opacity="0.4"/>
<stop offset="1" stop-color="#6EDCB5" stop-opacity="0"/>
</linearGradient>
</defs>
</svg>
